<?xml version="1.0" encoding="UTF-8"?>
<svg xmlns="http://www.w3.org/2000/svg" xmlns:xlink="http://www.w3.org/1999/xlink" width="32px" height="32px" viewBox="0 0 32 32" version="1.1">
<path fill="#646CFF" d="M29.884 6.146l-13.142 23.5a.714.714 0 01-1.244.005L2.096 6.148a.714.714 0 01.746-1.057l13.156 2.352a.714.714 0 00.253 0l13.135-2.35a.714.714 0 01.746 1.057z"/>
<path fill="#747BFF" d="M22.264 2.007L12.54 3.912a.357.357 0 00-.288.33l-.598 10.104a.357.357 0 00.437.369l2.707-.625a.357.357 0 01.43.42l-.804 3.939a.357.357 0 00.454.413l1.672-.508a.357.357 0 01.454.414l-1.279 6.187c-.08.387.435.598.65.267l.143-.222 7.925-15.815a.357.357 0 00-.387-.51l-2.787.537a.357.357 0 01-.41-.45l1.818-6.306a.357.357 0 00-.437-.45z"/>
</svg>